# ProBuilder 4.2.3
# https://unity3d.com/unity/features/worldbuilding/probuilder
# 08-06-2020 11:03:54

mtllib ./Bomb.mtl
o Bomb

g Bomb
v 0.1051462 0.3701302 0
v 0.1618034 0.3 0.0618034
v 0.0618034 0.3618034 0.1
v 0.2618382 0.2 0.209194
v 0.1 0.2618034 0.1618034
v 0 0.3051462 0.1701302
v 0 0.4 0
v -0.0618034 0.3618034 0.1
v -0.1051462 0.3701302 0
v 0.0618034 0.3618034 -0.1
v -0.0898087 0.4964266 -0.1
v 0 0.3051462 -0.1701302
v 0.1618034 0.3 -0.0618034
v 0.2041712 0.341233 -0.1618034
v 0.223999 0.2 -0.1051462
v 0.2 0.2 0
v -0.1618034 0.3 0.0618034
v -0.1 0.2618034 0.1618034
v -0.1701302 0.2 0.1051462
v 0 0.2 0.3306901
v 0.1 0.1381966 0.1618034
v 0 0.09485378 0.1701302
v 0.1618034 0.1 0.0618034
v 0.1618034 0.1 -0.0618034
v 0.1051462 0.02986984 0
v 0.1 0.1381966 -0.1618034
v 0 0.2 -0.2
v 0 0.09485378 -0.1701302
v -0.1 0.2618034 -0.1618034
v -0.1618034 0.3 -0.0618034
v -0.1701302 0.2 -0.1051462
v -0.1051462 0.02986984 0
v -0.1618034 0.1 0.0618034
v -0.0618034 0.03819659 0.1
v -0.1 0.1381966 0.1618034
v 0 0 0
v 0.0618034 0.03819659 0.1
v -0.0618034 0.03819659 -0.1
v 0.06180334 -0.06546378 -0.1
v -0.1618034 0.1 -0.0618034
v -0.1781836 0.1381967 -0.2017974
v -0.2 0.2 0

vt -0.1051462 0
vt -0.1618034 0.0618034
vt -0.0618034 0.1
vt -0.0618034 0.3
vt -0.1051462 0.2
vt -0.1618034 0.2618034
vt 0.1618034 0.3
vt 0.1 0.2618034
vt 0.0618034 0.3618034
vt 0 0.3051462
vt 0 0
vt 0 0.1701302
vt 0.0618034 0.1
vt 0.1051462 0
vt -0.0618034 -0.1
vt 0.0618034 -0.1
vt 0 -0.1701302
vt -0.1618034 -0.0618034
vt -0.0618034 0.3618034
vt -0.1 0.2618034
vt -0.1618034 0.3
vt 0.0618034 0.3
vt 0.1618034 0.2618034
vt 0.1051462 0.2
vt 0 0.3701302
vt 0 0.2
vt 0.1618034 0.0618034
vt 0.1701302 0.2
vt 0.1 0.1381966
vt 0 0.09485378
vt 0 0.02986984
vt -0.1701302 0.2
vt -0.1 0.1381966
vt 0.1618034 -0.0618034
vt 0.1618034 0.1381966
vt -0.1618034 0.1
vt -0.0618034 0.03819659
vt 0.0618034 0.03819659
vt 0.1618034 0.1
vt -0.1618034 0.1381966

vn 0.5831288 0.7487835 0.3150939
vn 0.1985579 0.8683824 0.4544083
vn 0.5773503 0.5773503 0.5773504
vn 0.3150939 0.5831288 0.7487835
vn 0.2680348 0.9435223 0.1947387
vn 0 0.7778674 0.6284284
vn 0 0.9341724 0.3568221
vn -0.2680348 0.9435223 0.1947387
vn 0.2680348 0.9435223 -0.1947387
vn -0.1772857 0.6240718 0.7609888
vn 0.6588634 0.7420095 0.1237776
vn 0.4273202 0.4812463 -0.7653754
vn 0.5831288 0.7487835 -0.3150939
vn -0.1226168 0.8220465 -0.5560619
vn 0.3243175 0.8181782 0.4747657
vn 0.8244433 0.3065813 0.4757111
vn 0.7778675 0.6284283 0
vn 0.8685299 0.4542662 0.1982372
vn 0.9341724 0.356822 0
vn 0.8432832 0.4761667 -0.2492764
vn -0.5831288 0.7487835 0.3150939
vn -0.3150939 0.5831288 0.7487835
vn -0.5773503 0.5773503 0.5773504
vn -0.7487835 0.3150938 0.5831289
vn 0.3779373 0.7745285 0.5072169
vn -0.2810261 0 0.9597002
vn 0.8604725 0 0.509497
vn 0.3779371 -0.7745283 0.5072173
vn 0.8432833 -0.4761667 -0.2492763
vn 0.8685301 -0.4542661 0.1982369
vn 0.9341724 -0.3568221 0
vn 0.7778675 -0.6284284 0
vn 0.5052956 -0.2592501 -0.823083
vn -0.009067743 0.2732553 -0.9618988
vn 0.2757294 -0.1414673 -0.9507682
vn 0.1947387 -0.2680349 -0.9435222
vn -0.1906057 0.2577901 -0.9472137
vn -0.8551284 0.3816499 0.3508545
vn -0.8030937 0.1841564 -0.5666807
vn -0.7487835 0.3150938 -0.5831289
vn -0.5831288 -0.7487835 0.3150938
vn -0.7487835 -0.3150938 0.5831288
vn -0.5773503 -0.5773503 0.5773503
vn -0.3150938 -0.5831288 0.7487835
vn -0.2680349 -0.9435222 0.1947387
vn 0 -0.7778675 0.6284284
vn 0 -0.9341724 0.3568221
vn 0.2680349 -0.9435222 0.1947387
vn -0.2680349 -0.9435222 -0.1947387
vn 0.2135301 -0.7516574 0.624032
vn -0.6390989 -0.7620746 0.1038983
vn -0.4143553 -0.4940856 -0.7643226
vn -0.5831288 -0.7487835 -0.3150938
vn -0.06443423 -0.7477324 -0.6608664
vn -0.5617205 -0.8124939 -0.1559605
vn -0.9936619 -0.03668591 0.1062549
vn -0.7778675 -0.6284284 0
vn -0.9435222 -0.1947387 -0.2680349
vn -0.9341724 -0.3568221 0
vn -0.9435222 -0.1947387 0.2680349
vn -0.3779371 -0.7745283 0.5072173
vn -0.6284283 0 0.7778675
vn -0.8604725 0 0.509497
vn -0.3779373 0.7745285 0.5072169
vn 0.5831288 -0.7487835 0.3150938
vn 0.3150938 -0.5831288 0.7487835
vn 0.5773503 -0.5773503 0.5773503
vn 0.1985584 -0.8683822 0.4544083
vn 0.2156637 -0.3203674 -0.9224174
vn 0.8299987 -0.5366843 0.1518952
vn 0.7477355 -0.3172497 -0.5833046
vn 0.5600247 -0.5971944 -0.5742223
vn -0.7565914 0.5776818 -0.3063545
vn 0.1039205 -0.271787 -0.95673
vn -0.1203405 0.3736977 -0.919711
vn -0.1947387 0.2680349 -0.9435222
vn -0.9435222 0.1947386 0.2680349
vn -0.9435222 0.1947386 -0.2680349
vn -0.9341724 0.356822 0
vn -0.7778675 0.6284283 0

usemtl Lit
f 3/3/1 2/2/1 1/1/1
f 5/6/2 4/5/2 2/4/2
f 3/9/3 5/8/3 2/7/3
f 6/10/4 5/8/4 3/9/4
f 7/11/5 3/3/5 1/1/5
f 8/13/6 6/12/6 3/3/6
f 7/11/7 8/13/7 3/3/7
f 9/14/8 8/13/8 7/11/8
f 10/15/9 7/11/9 1/1/9
f 11/16/10 9/14/10 7/11/10
f 10/15/11 11/16/11 7/11/11
f 12/17/12 11/16/12 10/15/12
f 13/18/13 10/15/13 1/1/13
f 14/20/14 12/10/14 10/19/14
f 13/21/15 14/20/15 10/19/15
f 15/24/16 14/23/16 13/22/16
f 2/4/17 13/22/17 1/25/17
f 16/26/18 15/24/18 13/22/18
f 2/4/19 16/26/19 13/22/19
f 4/5/20 16/26/20 2/4/20
f 17/27/21 8/13/21 9/14/21
f 18/20/22 6/10/22 8/19/22
f 17/21/23 18/20/23 8/19/23
f 19/24/24 18/23/24 17/22/24
f 20/26/25 5/8/25 6/10/25
f 21/29/26 4/28/26 5/8/26
f 20/26/27 21/29/27 5/8/27
f 22/30/28 21/29/28 20/26/28
f 23/3/29 16/26/29 4/5/29
f 24/13/30 15/24/30 16/26/30
f 23/3/31 24/13/31 16/26/31
f 25/31/32 24/13/32 23/3/32
f 26/33/33 14/20/33 15/32/33
f 27/26/34 12/10/34 14/20/34
f 26/33/35 27/26/35 14/20/35
f 28/30/36 27/26/36 26/33/36
f 29/8/37 11/9/37 12/10/37
f 30/34/38 9/14/38 11/16/38
f 29/8/39 30/7/39 11/9/39
f 31/5/40 30/4/40 29/6/40
f 34/3/41 33/2/41 32/1/41
f 35/35/42 19/24/42 33/13/42
f 34/37/43 35/33/43 33/36/43
f 22/30/44 35/33/44 34/37/44
f 36/11/45 34/3/45 32/1/45
f 37/13/46 22/12/46 34/3/46
f 36/11/47 37/13/47 34/3/47
f 25/14/48 37/13/48 36/11/48
f 38/15/49 36/11/49 32/1/49
f 39/16/50 25/14/50 36/11/50
f 38/15/51 39/16/51 36/11/51
f 28/17/52 39/16/52 38/15/52
f 40/18/53 38/15/53 32/1/53
f 41/29/54 28/30/54 38/38/54
f 40/39/55 41/29/55 38/38/55
f 31/5/56 41/40/56 40/3/56
f 33/13/57 40/3/57 32/31/57
f 42/26/58 31/5/58 40/3/58
f 33/13/59 42/26/59 40/3/59
f 19/24/60 42/26/60 33/13/60
f 20/26/61 35/33/61 22/30/61
f 18/20/62 19/32/62 35/33/62
f 20/26/63 18/20/63 35/33/63
f 6/10/64 18/20/64 20/26/64
f 23/27/65 37/13/65 25/14/65
f 21/29/66 22/30/66 37/38/66
f 23/39/67 21/29/67 37/38/67
f 4/5/68 21/40/68 23/3/68
f 26/33/69 39/37/69 28/30/69
f 24/34/70 25/14/70 39/16/70
f 26/33/71 24/36/71 39/37/71
f 15/24/72 24/13/72 26/35/72
f 29/8/73 41/29/73 31/28/73
f 27/26/74 28/30/74 41/29/74
f 29/8/75 27/26/75 41/29/75
f 12/10/76 27/26/76 29/8/76
f 17/22/77 42/26/77 19/24/77
f 30/4/78 31/5/78 42/26/78
f 17/22/79 30/4/79 42/26/79
f 9/25/80 30/4/80 17/22/80

